<svg height='100px' width='100px'  fill="#FFFFFF" xmlns:dc="http://purl.org/dc/elements/1.1/" xmlns:cc="http://creativecommons.org/ns#" xmlns:rdf="http://www.w3.org/1999/02/22-rdf-syntax-ns#" xmlns:svg="http://www.w3.org/2000/svg" xmlns="http://www.w3.org/2000/svg" xmlns:sodipodi="http://sodipodi.sourceforge.net/DTD/sodipodi-0.dtd" xmlns:inkscape="http://www.inkscape.org/namespaces/inkscape" viewBox="0 0 26 26" version="1.1" x="0px" y="0px"><g transform="translate(0,-1026.3622)"><g transform="matrix(1.0664186,0,0,1.0664186,58.689952,71.970494)"><g transform="translate(-56.000005,-133)"><g transform="matrix(0.93771808,0,0,0.93771808,2.8408121,65.511965)"><path style="color:#000000;font-style:normal;font-variant:normal;font-weight:normal;font-stretch:normal;font-size:medium;line-height:normal;font-family:sans-serif;text-indent:0;text-align:start;text-decoration:none;text-decoration-line:none;text-decoration-style:solid;text-decoration-color:#000000;letter-spacing:normal;word-spacing:normal;text-transform:none;direction:ltr;block-progression:tb;writing-mode:lr-tb;baseline-shift:baseline;text-anchor:start;white-space:normal;clip-rule:nonzero;display:inline;overflow:visible;visibility:visible;opacity:1;isolation:auto;mix-blend-mode:normal;color-interpolation:sRGB;color-interpolation-filters:linearRGB;solid-color:#000000;solid-opacity:1;fill:#FFFFFF;fill-opacity:1;fill-rule:nonzero;stroke:none;stroke-width:1.00000024;stroke-linecap:round;stroke-linejoin:round;stroke-miterlimit:4;stroke-dasharray:none;stroke-dashoffset:0;stroke-opacity:1;color-rendering:auto;image-rendering:auto;shape-rendering:auto;text-rendering:auto;enable-background:accumulate" d="M 13 0 C 5.826221 0 2.3684758e-015 5.8262 0 13 C 0 20.1738 5.826221 26 13 26 C 20.173779 26 26 20.1738 26 13 C 26 5.8262 20.173779 0 13 0 z M 13 1 C 19.633339 1 25 6.3667 25 13 C 25 19.6334 19.633339 25 13 25 C 6.366661 25 1 19.6334 1 13 C 1 6.3667 6.366661 1 13 1 z M 7.5 6 A 0.50005 0.50005 0 0 0 7 6.5 L 7 7.4863281 A 0.50005 0.50005 0 0 0 7.5 7.9863281 L 17.511719 7.9863281 A 0.50005 0.50005 0 0 0 18.011719 7.4863281 L 18.011719 6.5 A 0.50005 0.50005 0 0 0 17.511719 6 L 7.5 6 z M 8.5058594 6.4609375 A 0.50000004 0.49998283 0 0 1 9.0058594 6.9609375 A 0.50000004 0.49998283 0 0 1 8.5058594 7.4609375 A 0.50000004 0.49998283 0 0 1 8.0058594 6.9609375 A 0.50000004 0.49998283 0 0 1 8.5058594 6.4609375 z M 10.505859 6.4609375 A 0.50000004 0.49998283 0 0 1 11.005859 6.9609375 A 0.50000004 0.49998283 0 0 1 10.505859 7.4609375 A 0.50000004 0.49998283 0 0 1 10.005859 6.9609375 A 0.50000004 0.49998283 0 0 1 10.505859 6.4609375 z M 12.505859 6.4609375 A 0.50000004 0.49998283 0 0 1 13.005859 6.9609375 A 0.50000004 0.49998283 0 0 1 12.505859 7.4609375 A 0.50000004 0.49998283 0 0 1 12.005859 6.9609375 A 0.50000004 0.49998283 0 0 1 12.505859 6.4609375 z M 7.5039062 8.9921875 C 7.2284862 8.9921875 7.0058894 9.1980719 7.0058594 9.4511719 L 7.0058594 19.533203 C 7.0058894 19.786303 7.2284862 19.992087 7.5039062 19.992188 L 17.478516 19.992188 C 17.753176 19.992087 17.977416 19.787656 17.978516 19.535156 L 17.978516 18.619141 L 18.005859 16.792969 L 16.404297 16.792969 L 16.40625 17.191406 C 16.406 17.802106 15.99875 18.338322 15.5 18.544922 C 15.00125 18.751522 14.334334 18.660216 13.902344 18.228516 L 13.900391 18.228516 L 11.101562 15.421875 C 10.537882 14.857875 10.538792 13.914109 11.101562 13.349609 L 13.884766 10.558594 C 14.149106 10.293494 14.50511 10.141406 14.875 10.128906 C 14.79151 10.128706 14.855324 10.129141 14.958984 10.119141 C 15.083874 10.109141 15.287166 10.106125 15.541016 10.203125 C 15.794856 10.300125 16.073924 10.535987 16.214844 10.804688 C 16.355734 11.073288 16.390625 11.33695 16.390625 11.59375 L 16.390625 11.994141 L 18.005859 11.994141 L 18.005859 11.330078 L 18.005859 9.4980469 C 18.005869 9.2414469 17.749923 8.9910937 17.470703 8.9960938 C 14.221082 9.0490938 10.842129 8.9960938 7.5058594 8.9960938 L 7.5039062 8.9960938 L 7.5039062 8.9921875 z M 14.929688 11.126953 C 14.810221 11.126953 14.695766 11.179972 14.611328 11.263672 L 11.810547 14.054688 C 11.627197 14.236988 11.627197 14.532644 11.810547 14.714844 L 14.628906 17.521484 C 14.924817 17.815284 15.429516 17.607506 15.429688 17.191406 L 15.425781 15.792969 L 21.537109 15.792969 C 21.796513 15.792869 22.005839 15.583872 22.005859 15.326172 L 22.005859 13.416016 C 22.005839 13.158316 21.796513 12.949319 21.537109 12.949219 L 15.417969 12.949219 L 15.414062 11.59375 C 15.413167 11.330818 15.193889 11.120839 14.929688 11.128906 L 14.929688 11.126953 z " transform="translate(-1.9999999,1026.3622)"></path></g></g></g></g></svg>