<svg height='100px' width='100px'  fill="#FFFFFF" xmlns:dc="http://purl.org/dc/elements/1.1/" xmlns:cc="http://creativecommons.org/ns#" xmlns:rdf="http://www.w3.org/1999/02/22-rdf-syntax-ns#" xmlns:svg="http://www.w3.org/2000/svg" xmlns="http://www.w3.org/2000/svg" xmlns:sodipodi="http://sodipodi.sourceforge.net/DTD/sodipodi-0.dtd" xmlns:inkscape="http://www.inkscape.org/namespaces/inkscape" viewBox="0 0 26 26" version="1.1" x="0px" y="0px"><g transform="translate(0,-1026.3622)"><g transform="matrix(1.0664186,0,0,1.0664186,58.689952,71.970494)"><g transform="translate(-56.000005,-133)"><g transform="matrix(0.93771808,0,0,0.93771808,2.8408121,65.511965)"><g transform="translate(-1.9999997,-5.0358591e-5)"><path style="color:#000000;font-style:normal;font-variant:normal;font-weight:normal;font-stretch:normal;font-size:medium;line-height:normal;font-family:sans-serif;text-indent:0;text-align:start;text-decoration:none;text-decoration-line:none;text-decoration-style:solid;text-decoration-color:#000000;letter-spacing:normal;word-spacing:normal;text-transform:none;direction:ltr;block-progression:tb;writing-mode:lr-tb;baseline-shift:baseline;text-anchor:start;white-space:normal;clip-rule:nonzero;display:inline;overflow:visible;visibility:visible;opacity:1;isolation:auto;mix-blend-mode:normal;color-interpolation:sRGB;color-interpolation-filters:linearRGB;solid-color:#000000;solid-opacity:1;fill:#FFFFFF;fill-opacity:1;fill-rule:nonzero;stroke:none;stroke-width:1.00000024;stroke-linecap:round;stroke-linejoin:round;stroke-miterlimit:4;stroke-dasharray:none;stroke-dashoffset:0;stroke-opacity:1;color-rendering:auto;image-rendering:auto;shape-rendering:auto;text-rendering:auto;enable-background:accumulate" d="M 13 0 C 5.8262207 0 -3.5527137e-015 5.8262 0 13 C 0 20.1738 5.8262207 26 13 26 C 20.173779 26 26 20.1738 26 13 C 26 5.8262 20.173779 0 13 0 z M 13 1 C 19.633339 1 25 6.3667 25 13 C 25 19.6334 19.633339 25 13 25 C 6.3666607 25 1 19.6334 1 13 C 1 6.3667 6.3666607 1 13 1 z M 6.5 6 A 0.50005 0.50005 0 0 0 6 6.5 L 6 7.5 A 0.50005 0.50005 0 0 0 6.5 8 L 17.5 8 A 0.50005 0.50005 0 0 0 18 7.5 L 18 6.5 A 0.50005 0.50005 0 0 0 17.5 6 L 6.5 6 z M 7.5 6.5 A 0.5 0.5 0 0 1 8 7 A 0.5 0.5 0 0 1 7.5 7.5 A 0.5 0.5 0 0 1 7 7 A 0.5 0.5 0 0 1 7.5 6.5 z M 9.5 6.5 A 0.5 0.5 0 0 1 10 7 A 0.5 0.5 0 0 1 9.5 7.5 A 0.5 0.5 0 0 1 9 7 A 0.5 0.5 0 0 1 9.5 6.5 z M 11.5 6.5 A 0.5 0.5 0 0 1 12 7 A 0.5 0.5 0 0 1 11.5 7.5 A 0.5 0.5 0 0 1 11 7 A 0.5 0.5 0 0 1 11.5 6.5 z M 6.5449219 9 C 6.2436918 9.0001 6.00003 9.2239 6 9.5 L 6 19.5 C 6.00003 19.7762 6.2436918 20 6.5449219 20 L 17.455078 20 C 17.755478 20 17.9988 19.777353 18 19.501953 L 18 17.501953 L 18 17.451172 L 11.001953 17.451172 L 10.998047 12.404297 L 18 12.404297 L 18 10.501953 L 18 9.5019531 C 18.00003 9.2220531 17.748739 8.9965531 17.443359 9.0019531 C 13.88924 9.0599531 10.193831 9.0019531 6.5449219 9.0019531 L 6.5449219 9 z M 18.828125 11.818359 C 18.579173 11.818359 18.378915 12.022484 18.378906 12.271484 L 18.375 13.630859 L 18.375 13.640625 L 15.181641 13.640625 L 12.455078 13.640625 C 12.203339 13.640625 11.999037 13.845856 12 14.097656 L 12.001953 15.957031 C 12.001972 16.207431 12.204736 16.411109 12.455078 16.412109 L 18.367188 16.412109 L 18.363281 17.730469 C 18.363445 18.135269 18.854264 18.336881 19.140625 18.050781 L 21.867188 15.316406 C 22.044629 15.138906 22.044629 14.851328 21.867188 14.673828 L 19.15625 11.955078 C 19.070064 11.868534 18.950714 11.819349 18.828125 11.820312 L 18.828125 11.818359 z " transform="translate(-2.2631548e-7,1026.3623)"></path></g></g></g></g></g></svg>